<svg xmlns="http://www.w3.org/2000/svg" width="21.502" height="23.117" viewBox="0 0 21.502 23.117">
  <g id="_1F4C3" data-name="1F4C3" transform="translate(-13.339 -10.458)">
    <g id="color" transform="translate(13.839 10.958)">
      <path id="Path_916" data-name="Path 916" d="M34.956,29.37V10.958H15.037V31.044l19.172-.656" transform="translate(-14.454 -10.958)" fill="#9b9b9a"/>
      <path id="Path_917" data-name="Path 917" d="M35.451,29.37V10.958H16V25.62" transform="translate(-14.949 -10.958)" fill="#9b9b9a"/>
      <path id="Path_918" data-name="Path 918" d="M30.436,38.149,13.839,41.8l.4,5.247L29.4,45.019l1.592-.212,1.889-.252Z" transform="translate(-13.839 -24.927)" fill="#d0cfce"/>
    </g>
    <g id="line" transform="translate(13.839 10.958)">
      <path id="Path_919" data-name="Path 919" d="M35.451,29.37V10.958H16V25.62" transform="translate(-14.949 -10.958)" fill="none" stroke="#000" stroke-linecap="round" stroke-linejoin="round" stroke-miterlimit="10" stroke-width="1"/>
      <path id="Path_920" data-name="Path 920" d="M30.436,38.149,13.839,41.8l.4,5.247L29.4,45.019l1.592-.212,1.889-.252Z" transform="translate(-13.839 -24.927)" fill="none" stroke="#000" stroke-linecap="round" stroke-linejoin="round" stroke-miterlimit="10" stroke-width="1"/>
      <line id="Line_108" data-name="Line 108" x2="7.478" transform="translate(3.298 2.452)" fill="none" stroke="#000" stroke-linecap="round" stroke-linejoin="round" stroke-miterlimit="10" stroke-width="1"/>
      <line id="Line_109" data-name="Line 109" x2="15.093" transform="translate(3.298 5.042)" fill="none" stroke="#000" stroke-linecap="round" stroke-linejoin="round" stroke-miterlimit="10" stroke-width="1"/>
      <line id="Line_110" data-name="Line 110" x2="15.093" transform="translate(3.298 10.339)" fill="none" stroke="#000" stroke-linecap="round" stroke-linejoin="round" stroke-miterlimit="10" stroke-width="1"/>
      <line id="Line_111" data-name="Line 111" x2="6.21" transform="translate(3.298 12.968)" fill="none" stroke="#000" stroke-linecap="round" stroke-linejoin="round" stroke-miterlimit="10" stroke-width="1"/>
      <line id="Line_112" data-name="Line 112" x2="15.093" transform="translate(3.298 7.71)" fill="none" stroke="#000" stroke-linecap="round" stroke-linejoin="round" stroke-miterlimit="10" stroke-width="1"/>
      <path id="Path_921" data-name="Path 921" d="M54.459,48.321A1.459,1.459,0,0,1,53,49.78" transform="translate(-33.957 -30.153)" fill="none" stroke="#000" stroke-linecap="round" stroke-linejoin="round" stroke-miterlimit="10" stroke-width="1"/>
    </g>
  </g>
</svg>
