<svg xmlns="http://www.w3.org/2000/svg" width="23.043" height="21" viewBox="0 0 23.043 21">
  <g id="_1F916" data-name="1F916" transform="translate(-10.5 -10.5)">
    <g id="color" transform="translate(11 11.045)">
      <path id="Path_473" data-name="Path 473" d="M34,13.311V12.2a1.1,1.1,0,0,1,1.1-1.1h0a1.1,1.1,0,0,1,1.1,1.1v1.1" transform="translate(-23.86 -11.101)" fill="#d22f27"/>
      <path id="Path_474" data-name="Path 474" d="M12.1,33.833h0a1.1,1.1,0,0,1-1.1-1.1V29.2a1.1,1.1,0,0,1,1.1-1.1h0a1.1,1.1,0,0,1,1.1,1.1V32.73A1.1,1.1,0,0,1,12.1,33.833Z" transform="translate(-11 -20.607)" fill="#d0cfce"/>
      <path id="Path_475" data-name="Path 475" d="M57.1,33.833h0a1.1,1.1,0,0,0,1.1-1.1V29.2a1.1,1.1,0,0,0-1.1-1.1h0A1.1,1.1,0,0,0,56,29.2V32.73A1.1,1.1,0,0,0,57.1,33.833Z" transform="translate(-36.161 -20.607)" fill="#d0cfce"/>
      <path id="Path_476" data-name="Path 476" d="M29.865,33.747h-10.1A3.78,3.78,0,0,1,16,29.978v-10.1a3.78,3.78,0,0,1,3.769-3.769h10.1a3.78,3.78,0,0,1,3.769,3.769v10.1A3.78,3.78,0,0,1,29.865,33.747Z" transform="translate(-13.796 -13.903)" fill="#d0cfce"/>
      <path id="Path_477" data-name="Path 477" d="M35.5,33.746h5.857c1.75,0,3.181-1.7,3.181-3.769v-10.1c0-2.073-1.432-3.769-3.181-3.769H40.318" transform="translate(-24.698 -13.903)" fill="#9b9b9a"/>
      <circle id="Ellipse_25" data-name="Ellipse 25" cx="1.249" cy="1.249" r="1.249" transform="translate(13.667 6.643)" fill="#fff"/>
      <circle id="Ellipse_26" data-name="Ellipse 26" cx="1.249" cy="1.249" r="1.249" transform="translate(5.952 6.642)" fill="#fff"/>
      <path id="Path_478" data-name="Path 478" d="M32.758,43.027H25.263A1.769,1.769,0,0,1,23.5,41.264h0A1.769,1.769,0,0,1,25.263,39.5h7.495a1.769,1.769,0,0,1,1.763,1.763h0A1.769,1.769,0,0,1,32.758,43.027Z" transform="translate(-17.989 -26.98)" fill="#fff"/>
    </g>
    <g id="line" transform="translate(11 11)">
      <path id="Path_479" data-name="Path 479" d="M36.5,21.454" transform="translate(-25.258 -16.845)" fill="none" stroke="#000" stroke-linecap="round" stroke-linejoin="round" stroke-miterlimit="2" stroke-width="1"/>
      <path id="Path_480" data-name="Path 480" d="M34,13.209V12.1A1.1,1.1,0,0,1,35.1,11h0a1.1,1.1,0,0,1,1.1,1.1v1.1" transform="translate(-23.86 -11)" fill="none" stroke="#000" stroke-linecap="round" stroke-linejoin="round" stroke-miterlimit="2" stroke-width="1"/>
      <path id="Path_481" data-name="Path 481" d="M29.865,33.634h-10.1A3.78,3.78,0,0,1,16,29.865v-10.1A3.78,3.78,0,0,1,19.769,16h10.1a3.78,3.78,0,0,1,3.769,3.769v10.1A3.78,3.78,0,0,1,29.865,33.634Z" transform="translate(-13.796 -13.796)" fill="none" stroke="#000" stroke-linecap="round" stroke-linejoin="round" stroke-miterlimit="2" stroke-width="1"/>
      <circle id="Ellipse_27" data-name="Ellipse 27" cx="1.249" cy="1.249" r="1.249" transform="translate(13.667 6.687)" fill="none" stroke="#000" stroke-linecap="round" stroke-linejoin="round" stroke-miterlimit="2" stroke-width="1"/>
      <circle id="Ellipse_28" data-name="Ellipse 28" cx="1.249" cy="1.249" r="1.249" transform="translate(5.952 6.687)" fill="none" stroke="#000" stroke-linecap="round" stroke-linejoin="round" stroke-miterlimit="2" stroke-width="1"/>
      <path id="Path_482" data-name="Path 482" d="M32.758,43.027H25.263A1.769,1.769,0,0,1,23.5,41.263h0A1.769,1.769,0,0,1,25.263,39.5h7.495a1.769,1.769,0,0,1,1.763,1.763h0A1.769,1.769,0,0,1,32.758,43.027Z" transform="translate(-17.989 -26.935)" fill="none" stroke="#000" stroke-miterlimit="2" stroke-width="1"/>
      <path id="Path_483" data-name="Path 483" d="M12.1,33.731h0a1.1,1.1,0,0,1-1.1-1.1V29.1A1.1,1.1,0,0,1,12.1,28h0a1.1,1.1,0,0,1,1.1,1.1v3.527A1.1,1.1,0,0,1,12.1,33.731Z" transform="translate(-11 -20.505)" fill="none" stroke="#000" stroke-linecap="round" stroke-linejoin="round" stroke-miterlimit="2" stroke-width="1"/>
      <path id="Path_484" data-name="Path 484" d="M57.1,33.731h0a1.1,1.1,0,0,0,1.1-1.1V29.1A1.1,1.1,0,0,0,57.1,28h0A1.1,1.1,0,0,0,56,29.1v3.527A1.1,1.1,0,0,0,57.1,33.731Z" transform="translate(-36.161 -20.505)" fill="none" stroke="#000" stroke-linecap="round" stroke-linejoin="round" stroke-miterlimit="2" stroke-width="1"/>
      <path id="Path_485" data-name="Path 485" d="M36.5,37.5" transform="translate(-25.258 -25.817)" fill="none" stroke="#000" stroke-miterlimit="10" stroke-width="1"/>
      <path id="Path_486" data-name="Path 486" d="M36.5,57.5" transform="translate(-25.258 -37)" fill="none" stroke="#000" stroke-miterlimit="10" stroke-width="1"/>
      <line id="Line_53" data-name="Line 53" y2="3" transform="translate(7.021 13)" fill="none" stroke="#000" stroke-linecap="round" stroke-linejoin="round" stroke-miterlimit="2" stroke-width="1"/>
      <line id="Line_54" data-name="Line 54" y2="3" transform="translate(10.021 13)" fill="none" stroke="#000" stroke-linecap="round" stroke-linejoin="round" stroke-miterlimit="2" stroke-width="1"/>
      <line id="Line_55" data-name="Line 55" y2="3" transform="translate(12.021 13)" fill="none" stroke="#000" stroke-linecap="round" stroke-linejoin="round" stroke-miterlimit="2" stroke-width="1"/>
      <line id="Line_56" data-name="Line 56" y2="3" transform="translate(14.021 13)" fill="none" stroke="#000" stroke-linecap="round" stroke-linejoin="round" stroke-miterlimit="2" stroke-width="1"/>
    </g>
  </g>
</svg>
